<svg width="16" height="16" viewBox="0 0 16 16" fill="none" xmlns="http://www.w3.org/2000/svg">
<path d="M15.5559 7.97331C15.0806 7.48931 14.9746 6.75397 15.2939 6.15531C15.5219 5.72864 15.5379 5.22131 15.3366 4.78064C15.1359 4.34064 14.7412 4.01931 14.2692 3.91264C13.6086 3.76264 13.1212 3.20131 13.0672 2.52531C13.0279 2.04331 12.7666 1.60664 12.3592 1.34531C11.9532 1.08331 11.4479 1.02664 10.9926 1.19264C10.3552 1.42397 9.6419 1.21397 9.23124 0.675308C8.9379 0.291308 8.4819 0.0653076 7.9979 0.0653076C7.51457 0.0653076 7.05857 0.291308 6.76524 0.675308C6.35657 1.21464 5.64323 1.42464 5.0059 1.19331C4.55123 1.02797 4.0459 1.08464 3.63923 1.34597C3.23257 1.60731 2.97057 2.04397 2.9319 2.52597C2.87723 3.20197 2.39057 3.76397 1.7299 3.91331C1.2579 4.01997 0.863232 4.34131 0.662566 4.78131C0.461899 5.22131 0.477899 5.72931 0.705899 6.15531C1.02523 6.75331 0.919232 7.48931 0.444566 7.97331C0.105232 8.31797 -0.0534346 8.80131 0.0152321 9.27997C0.0838988 9.75864 0.372566 10.178 0.795232 10.4133C1.38723 10.7433 1.69657 11.42 1.5579 12.0833C1.4599 12.5566 1.58723 13.0486 1.9039 13.414C2.22123 13.78 2.69057 13.9766 3.1719 13.946C3.84923 13.904 4.4739 14.306 4.71657 14.9386C4.88923 15.3906 5.26323 15.7353 5.7279 15.8713C6.19124 16.0073 6.69257 15.9193 7.0819 15.6333C7.6279 15.2313 8.37257 15.2313 8.9179 15.6333C9.30724 15.92 9.80857 16.008 10.2719 15.8713C10.7366 15.7353 11.1106 15.39 11.2839 14.9386C11.5259 14.306 12.1512 13.9033 12.8279 13.946C13.3106 13.9766 13.7792 13.78 14.0959 13.414C14.4126 13.0486 14.5406 12.5566 14.4419 12.0833C14.3039 11.42 14.6126 10.7433 15.2052 10.4133C15.6272 10.1773 15.9152 9.75864 15.9846 9.27997C16.0539 8.80131 15.8946 8.31797 15.5559 7.97331V7.97331ZM7.16657 11.5933L4.16657 8.68397L5.40457 7.44597L7.16657 9.11664L10.9286 5.26064L12.1666 6.49864L7.16657 11.5933Z" fill="#F8765E"/>
</svg>
